. 
  
http://www.torrentday.com/        :     The Hottest Private Tracker On The Net!!!
 
http://www.torrentday.com          :     Once & For all ;)


               www . TorrentDay . Com 

(((((((((((((= Enjoy No RAR releases =))))))))))))))))))))


...................................NFO:....................................

.                            Unknown (2011) TS Xvid D3MT


Format                           : AVI
Format/Info                      : Audio Video Interleave
File size                        : 905 MiB
Duration                         : 1h 47mn
Overall bit rate                 : 1 174 Kbps
Writing application              : Lavf52.39.1

Video
ID                               : 0
Format                           : xvid
Codec ID                         : xvid
Duration                         : 1h 47mn
Bit rate                         : 1 097 Kbps
Width                            : 624 pixels
Height                           : 272 pixels
Display aspect ratio             : 2.25:1
Frame rate                       : 25.000 fps
Bits/(Pixel*Frame)               : 0.259
Stream size                      : 846 MiB (93%)

Audio
ID                               : 1
Format                           : MPEG Audio
Format version                   : Version 1
Format profile                   : Layer 3
Mode                             : Joint stereo
Mode extension                   : MS Stereo
Codec ID                         : 55
Codec ID/Hint                    : MP3
Duration                         : 1h 47mn
Bit rate mode                    : Constant
Bit rate                         : 64.0 Kbps
Channel(s)                       : 2 channels
Sampling rate                    : 48.0 KHz
Compression mode                 : Lossy
Stream size                      : 49.4 MiB (5%)
Alignment                        : Aligned on interleaves
Interleave, duration             : 24 ms (0.60 video frame)
Interleave, preload duration     : 24 ms
Writing library                  : LAME3.96.1

Link: http://www.imdb.com/title/tt1401152/

Plot: A man awakens from a coma, only to discover that someone has taken on his identity and that no one, (not even his wife), believes him. With the help of a young woman, he sets out to prove who he is. 

Cast

Liam Neeson ... Dr. Martin Harris
Diane Kruger ... Gina
January Jones ... Elizabeth Harris
Aidan Quinn ... Martin B.
Bruno Ganz ... Ernst J  rgen
Frank Langella ... Rodney Cole
Sebastian Koch ... Professor Bressler
Olivier Schneider ... Smith
Stipe Erceg ... Jones
Rainer Bock ... Herr Strauss
Mido Hamada ... Prince Shada
Clint Dyer ... Biko
Karl Markovics ... Dr. Farge
Eva L  bau ... Nurse Gretchen Erfurt
Helen Wiebensohn ... Laurel Bressler

eNJOY...